<?xml version="1.0" standalone="no"?>
<!DOCTYPE svg PUBLIC "-//W3C//DTD SVG 20010904//EN"
 "http://www.w3.org/TR/2001/REC-SVG-20010904/DTD/svg10.dtd">
<svg version="1.0" xmlns="http://www.w3.org/2000/svg"
 width="2943.000000pt" height="2943.000000pt" viewBox="0 0 2943.000000 2943.000000"
 preserveAspectRatio="xMidYMid meet">
<metadata>
Created by potrace 1.11, written by Peter Selinger 2001-2013
</metadata>
<g transform="translate(0.000000,2943.000000) scale(0.100000,-0.100000)"
fill="#000000" stroke="none">
<path d="M10340 27189 c-52 -9 -115 -20 -140 -24 -25 -3 -52 -8 -60 -10 -8 -2
-31 -7 -50 -10 -19 -3 -85 -14 -146 -25 -61 -11 -129 -22 -150 -25 -21 -4 -46
-8 -54 -10 -8 -2 -28 -6 -45 -9 -29 -4 -115 -19 -125 -21 -3 0 -26 -4 -51 -8
-57 -10 -57 -9 -274 -47 -99 -17 -193 -33 -210 -36 -16 -3 -37 -7 -45 -9 -8
-2 -35 -7 -60 -10 -25 -3 -67 -10 -95 -15 -65 -12 -579 -99 -625 -106 -19 -3
-57 -9 -85 -15 -27 -5 -63 -11 -80 -14 -16 -2 -41 -6 -55 -9 -14 -3 -54 -10
-90 -16 -103 -16 -177 -29 -206 -34 -12 -2 -39 -7 -60 -10 -22 -4 -64 -11 -94
-16 -30 -5 -68 -12 -85 -14 -16 -3 -73 -12 -125 -22 -52 -9 -111 -18 -130 -21
-19 -2 -42 -6 -50 -9 -8 -3 -33 -7 -55 -10 -22 -3 -60 -9 -85 -14 -25 -6 -61
-12 -81 -14 -20 -3 -74 -12 -120 -21 -46 -8 -100 -18 -119 -20 -19 -3 -46 -7
-60 -10 -13 -2 -40 -7 -60 -10 -20 -3 -45 -7 -55 -9 -11 -2 -40 -7 -65 -11
-25 -4 -54 -9 -65 -11 -29 -6 -71 -13 -107 -19 -18 -3 -55 -10 -83 -15 -58
-11 -88 -16 -170 -30 -33 -5 -71 -12 -85 -15 -14 -3 -40 -8 -59 -11 -18 -3
-41 -7 -50 -9 -39 -7 -108 -18 -126 -21 -11 -1 -22 -3 -25 -4 -7 -3 -19 -5
-77 -14 -29 -5 -53 -11 -53 -15 1 -3 139 -75 308 -158 599 -297 1005 -546
1397 -854 83 -65 161 -129 175 -141 14 -13 64 -57 110 -98 197 -174 464 -465
620 -674 165 -221 313 -488 405 -726 17 -46 63 -183 70 -210 26 -106 48 -200
51 -220 2 -14 7 -41 10 -60 25 -137 35 -417 21 -580 -9 -105 -24 -208 -48
-325 -12 -55 -22 -108 -24 -118 -4 -18 -47 -160 -71 -235 -45 -139 -138 -347
-285 -640 -140 -278 -164 -331 -141 -316 15 9 88 60 162 113 74 53 155 109
180 126 25 16 50 34 57 40 6 5 33 25 60 43 26 18 103 72 170 120 371 263 805
563 1118 772 225 150 297 198 525 345 36 23 108 68 160 100 52 32 111 69 130
81 77 50 514 306 650 382 101 55 271 145 280 147 3 1 50 23 105 49 275 132
649 255 855 281 391 51 594 -139 655 -610 7 -54 15 -99 20 -103 4 -4 70 55
134 119 187 187 334 402 406 594 33 87 71 216 80 275 4 25 9 54 12 65 12 50
10 356 -3 440 -16 104 -52 256 -65 269 -5 6 -9 18 -9 28 0 9 -11 41 -24 70
-13 29 -33 75 -45 101 -59 137 -219 374 -366 543 -127 147 -366 376 -545 524
-41 34 -86 71 -99 82 -104 89 -633 458 -656 458 -4 0 -25 13 -48 28 -75 51
-327 194 -562 319 -95 50 -499 251 -640 319 -55 26 -129 55 -165 65 -84 22
-218 21 -340 -2z"/>
<path d="M15486 21455 c-70 -13 -145 -27 -165 -30 -20 -3 -103 -17 -186 -31
-82 -14 -159 -27 -170 -29 -11 -1 -117 -19 -235 -40 -118 -20 -226 -38 -240
-40 -14 -2 -38 -6 -55 -9 -16 -3 -138 -23 -270 -46 -132 -22 -253 -43 -270
-46 -16 -3 -39 -7 -50 -8 -23 -3 -100 -16 -130 -22 -32 -7 -62 -12 -195 -33
-69 -11 -134 -22 -145 -25 -11 -2 -40 -7 -65 -11 -25 -4 -54 -9 -65 -11 -11
-2 -114 -19 -230 -39 -254 -43 -254 -43 -285 -49 -14 -3 -43 -8 -65 -11 -22
-3 -76 -12 -120 -20 -44 -8 -96 -17 -115 -20 -19 -3 -46 -7 -60 -10 -14 -3
-41 -7 -60 -10 -34 -5 -124 -21 -165 -29 -19 -3 -78 -13 -135 -22 -14 -3 -37
-7 -52 -10 -15 -3 -39 -7 -55 -9 -15 -2 -68 -11 -118 -20 -49 -9 -103 -18
-120 -21 -16 -2 -66 -11 -110 -19 -44 -7 -96 -16 -115 -19 -19 -3 -57 -10 -85
-15 -27 -5 -70 -12 -95 -16 -25 -3 -52 -8 -60 -10 -8 -3 -32 -7 -52 -9 -21 -3
-66 -10 -100 -17 -35 -6 -72 -13 -83 -15 -27 -4 -263 -44 -300 -50 -28 -4
-115 -20 -160 -28 -31 -5 -119 -20 -130 -21 -5 -1 -23 -4 -40 -8 -16 -3 -46
-8 -65 -11 -32 -5 -298 -50 -360 -61 -14 -3 -65 -12 -115 -20 -102 -17 -129
-22 -200 -35 -46 -8 -73 -13 -160 -26 -16 -3 -52 -9 -80 -14 -27 -5 -66 -12
-85 -15 -54 -9 -78 -13 -170 -29 -47 -8 -98 -17 -115 -20 -16 -3 -46 -8 -65
-11 -19 -4 -44 -8 -55 -10 -31 -4 -207 -34 -230 -39 -11 -2 -40 -7 -65 -11
-71 -12 -79 -13 -200 -34 -110 -20 -132 -24 -210 -37 -19 -3 -48 -8 -65 -11
-16 -2 -95 -15 -175 -29 -80 -14 -158 -27 -175 -29 -16 -3 -41 -7 -55 -10 -14
-3 -41 -7 -60 -10 -19 -3 -71 -12 -115 -20 -87 -16 -120 -21 -179 -30 -21 -4
-48 -9 -60 -11 -27 -5 -23 -5 -341 -59 -148 -26 -283 -49 -300 -51 -16 -3 -52
-9 -80 -14 -27 -5 -63 -12 -80 -15 -57 -10 -90 -16 -92 -19 -5 -4 192 -100
392 -191 118 -53 215 -100 455 -219 146 -73 290 -146 320 -163 30 -16 91 -50
135 -73 344 -186 772 -444 1115 -673 187 -124 465 -317 505 -350 6 -4 62 -47
126 -95 120 -90 167 -126 229 -177 20 -16 56 -46 80 -65 57 -45 180 -149 250
-210 30 -27 66 -58 80 -70 195 -169 551 -526 746 -750 21 -24 47 -54 57 -65
52 -56 266 -326 353 -445 137 -186 294 -421 365 -547 142 -251 222 -408 299
-588 23 -55 51 -119 62 -143 46 -105 175 -518 203 -652 21 -100 55 -275 60
-313 4 -27 8 -58 10 -69 8 -37 21 -171 32 -303 14 -183 7 -691 -11 -805 -3
-14 -7 -56 -11 -95 -4 -38 -8 -72 -10 -75 -2 -3 -6 -32 -9 -65 -4 -33 -9 -67
-11 -75 -2 -8 -6 -33 -10 -55 -35 -243 -145 -638 -275 -990 -4 -11 -8 -23 -9
-27 -1 -4 -22 -53 -47 -109 -24 -56 -44 -108 -44 -115 0 -8 -4 -14 -10 -14 -5
0 -10 -7 -10 -15 0 -8 -4 -23 -9 -33 -6 -9 -53 -105 -105 -212 -53 -107 -108
-217 -124 -245 -16 -27 -42 -75 -59 -105 -54 -99 -72 -129 -170 -288 -53 -86
-152 -240 -221 -341 -68 -101 -118 -180 -111 -176 8 5 32 21 54 37 22 17 155
109 295 205 441 303 510 351 810 562 129 91 253 177 275 193 22 15 78 55 125
88 47 33 101 71 120 84 19 13 162 113 317 223 156 109 387 270 514 358 127 88
236 165 243 170 6 6 19 15 29 20 16 10 149 100 287 196 174 121 1034 691 1190
789 36 23 128 81 205 130 77 49 226 141 330 205 105 65 206 128 225 140 19 13
109 67 200 120 91 54 176 105 190 114 42 27 64 40 85 49 11 6 56 31 100 57 44
26 96 57 115 68 74 42 278 155 335 187 33 18 74 40 90 50 17 9 71 39 120 65
50 26 114 61 142 77 239 131 626 312 936 437 279 113 736 248 937 277 19 3 41
7 48 9 76 26 435 26 547 1 127 -29 217 -67 310 -128 157 -105 261 -249 343
-473 17 -46 50 -184 57 -240 4 -27 9 -61 11 -75 3 -14 7 -90 9 -168 4 -143 14
-201 39 -221 40 -33 360 288 583 584 276 367 488 805 562 1165 6 30 14 66 16
80 13 60 35 221 40 295 11 132 5 389 -10 485 -2 14 -6 45 -10 70 -11 78 -14
95 -29 171 -20 99 -21 105 -40 174 -20 70 -21 75 -28 95 -3 8 -11 35 -18 60
-24 90 -124 339 -197 488 -265 546 -691 1079 -1283 1602 -47 41 -87 78 -90 81
-3 3 -71 61 -151 130 -182 155 -433 352 -649 509 -91 66 -171 126 -179 132
-20 17 -479 323 -566 378 -104 65 -226 140 -260 160 -16 10 -106 63 -199 119
-93 55 -170 101 -172 101 -1 0 -41 23 -89 50 -48 28 -89 50 -91 50 -2 0 -21
10 -42 23 -43 27 -182 103 -462 251 -119 64 -844 424 -965 481 -44 21 -118 55
-165 77 -351 165 -338 160 -435 163 -63 2 -129 -4 -219 -20z"/>
<path d="M23505 20190 c-88 -21 -230 -54 -315 -74 -85 -21 -168 -39 -185 -42
-16 -3 -43 -9 -60 -14 -16 -5 -61 -16 -100 -24 -38 -9 -119 -27 -180 -41 -60
-14 -119 -28 -130 -30 -11 -3 -98 -23 -195 -46 -96 -22 -220 -51 -275 -64
-352 -82 -523 -122 -677 -161 -10 -2 -26 -6 -35 -8 -10 -2 -92 -22 -183 -44
-91 -22 -191 -46 -223 -53 -43 -9 -56 -16 -52 -27 3 -7 5 -17 5 -22 0 -9 98
-73 315 -205 88 -54 229 -144 313 -201 142 -96 451 -320 462 -335 3 -4 28 -24
56 -45 44 -33 129 -104 168 -139 6 -5 50 -44 96 -85 195 -171 405 -382 575
-575 39 -44 72 -82 75 -85 15 -14 206 -258 270 -345 170 -231 339 -510 466
-771 41 -83 74 -155 74 -158 0 -3 11 -29 24 -58 105 -232 236 -683 271 -933 3
-22 8 -49 10 -61 2 -11 7 -45 10 -75 3 -30 7 -65 10 -78 27 -138 27 -735 0
-921 -2 -14 -6 -50 -10 -81 -3 -31 -7 -65 -9 -75 -2 -11 -7 -39 -10 -64 -3
-25 -8 -55 -10 -66 -2 -12 -7 -37 -10 -55 -9 -57 -24 -129 -51 -244 -14 -60
-28 -117 -30 -126 -13 -60 -104 -344 -163 -509 -58 -161 -207 -504 -331 -760
l-41 -85 56 60 c31 33 83 94 116 135 66 83 62 78 138 175 62 79 324 396 380
459 287 321 411 455 650 700 465 477 740 735 925 871 22 17 42 32 45 35 3 3
41 31 85 61 244 169 498 292 670 324 146 27 302 -25 380 -126 17 -22 35 -45
41 -52 36 -41 84 -211 98 -349 12 -117 24 -250 32 -373 3 -49 8 -101 9 -115 2
-14 4 -36 4 -50 l1 -25 25 30 c84 100 250 329 305 421 177 298 299 633 335
922 4 26 8 58 11 72 8 49 17 216 17 315 1 164 -11 290 -39 455 -11 63 -35 170
-49 220 -9 30 -17 60 -19 65 -1 6 -8 30 -15 55 -45 160 -255 611 -317 681 -8
8 -14 18 -14 22 0 8 -82 135 -124 192 -17 22 -48 65 -70 95 -39 53 -189 243
-211 266 -5 7 -35 40 -65 75 -182 209 -489 513 -695 689 -27 23 -63 54 -80 68
-16 14 -97 80 -180 146 -470 374 -1063 759 -1735 1123 -41 23 -107 58 -145 80
-161 88 -185 97 -260 99 -51 1 -114 -9 -230 -36z"/>
<path d="M6800 18503 c-27 -5 -749 -170 -890 -204 -47 -12 -95 -23 -107 -25
-12 -2 -120 -27 -240 -55 -120 -27 -256 -59 -303 -69 -47 -11 -141 -33 -210
-51 -69 -17 -136 -33 -150 -35 -14 -3 -50 -11 -80 -19 -30 -8 -66 -16 -80 -19
-79 -16 -228 -46 -245 -50 -157 -35 -259 -67 -327 -102 l-37 -19 47 -50 c38
-41 174 -191 217 -239 10 -11 144 -171 177 -211 212 -258 445 -598 614 -895
67 -118 204 -397 249 -505 20 -49 41 -99 46 -110 54 -122 181 -523 204 -648 3
-12 9 -44 15 -72 18 -89 20 -99 26 -135 2 -19 9 -57 14 -85 5 -27 12 -77 15
-110 4 -32 8 -62 9 -65 10 -16 20 -235 20 -435 1 -201 -2 -271 -19 -460 -3
-35 -18 -136 -40 -280 -4 -22 -11 -60 -17 -85 -5 -25 -12 -56 -14 -70 -24
-126 -123 -485 -153 -555 -5 -11 -25 -67 -46 -125 -116 -328 -315 -731 -553
-1122 -39 -65 -70 -118 -68 -118 2 0 35 30 74 68 71 69 359 344 416 396 17 16
72 68 121 115 50 47 148 140 219 206 71 66 134 125 140 130 33 32 141 128 205
185 41 36 79 70 85 75 6 6 45 39 86 75 41 36 77 67 80 70 3 3 32 28 65 55 33
28 62 52 65 55 8 8 150 122 181 145 67 51 245 185 254 193 27 21 308 214 363
248 34 21 92 58 130 81 37 23 83 51 102 61 19 11 64 36 99 56 128 73 321 157
396 172 11 2 31 6 45 9 152 30 271 22 377 -26 80 -36 166 -140 195 -234 38
-126 53 -394 33 -570 -13 -111 -11 -194 6 -233 l14 -33 65 64 c458 452 720
988 787 1614 10 88 9 387 0 483 -28 278 -121 626 -240 895 -34 78 -163 334
-199 397 -18 31 -51 87 -72 125 -38 65 -233 363 -245 373 -3 3 -39 50 -80 105
-41 55 -77 102 -80 105 -4 3 -22 25 -41 50 -193 251 -620 688 -991 1011 -278
243 -543 461 -584 479 -43 19 -105 29 -145 23z"/>
<path d="M29238 12105 c-3 -4 -14 -6 -108 -20 -25 -4 -54 -9 -65 -11 -11 -2
-40 -7 -65 -10 -25 -3 -52 -7 -60 -9 -8 -2 -31 -7 -50 -10 -19 -3 -60 -10 -90
-15 -30 -5 -73 -12 -95 -15 -22 -3 -96 -15 -165 -26 -69 -11 -138 -22 -155
-25 -16 -3 -37 -7 -45 -9 -8 -2 -40 -7 -70 -10 -30 -4 -57 -8 -60 -10 -3 -2
-30 -6 -60 -10 -30 -3 -63 -8 -73 -11 -10 -3 -30 -7 -45 -9 -15 -2 -40 -6 -57
-9 -133 -23 -415 -69 -435 -71 -14 -1 -34 -5 -45 -8 -11 -3 -38 -8 -60 -12
-22 -3 -66 -10 -97 -15 -58 -10 -157 -27 -213 -36 -16 -3 -43 -7 -60 -10 -32
-6 -367 -63 -400 -68 -44 -7 -222 -38 -245 -42 -14 -3 -38 -7 -55 -9 -16 -3
-41 -7 -55 -10 -14 -2 -41 -7 -60 -10 -19 -3 -46 -7 -60 -10 -14 -3 -41 -7
-60 -10 -39 -6 -135 -22 -177 -30 -16 -3 -44 -8 -63 -11 -19 -3 -71 -12 -115
-19 -44 -8 -96 -17 -115 -20 -19 -3 -48 -8 -63 -11 -16 -3 -38 -7 -50 -9 -74
-10 -123 -18 -128 -21 -3 -1 -28 -6 -55 -9 -27 -4 -56 -8 -64 -10 -8 -2 -28
-6 -45 -9 -16 -3 -46 -8 -65 -11 -19 -3 -60 -10 -90 -15 -30 -5 -68 -12 -85
-14 -16 -3 -97 -17 -180 -31 -192 -33 -193 -33 -239 -40 -21 -4 -48 -9 -60
-11 -11 -2 -37 -7 -56 -10 -19 -3 -46 -7 -60 -10 -14 -3 -38 -7 -55 -9 -25 -4
-98 -16 -115 -20 -3 0 -27 -4 -53 -9 -27 -4 -59 -9 -70 -12 -12 -2 -35 -6 -52
-9 -61 -9 -191 -31 -231 -39 -12 -2 -38 -7 -58 -10 -21 -3 -103 -17 -184 -31
-81 -14 -160 -28 -177 -30 -16 -3 -41 -7 -55 -10 -14 -2 -41 -7 -60 -9 -19 -3
-45 -8 -56 -10 -12 -2 -39 -7 -60 -11 -22 -3 -50 -8 -64 -10 -323 -55 -451
-77 -480 -81 -19 -2 -55 -9 -80 -14 -25 -5 -65 -12 -90 -16 -65 -9 -92 -14
-120 -19 -60 -12 -78 -15 -120 -21 -25 -3 -54 -8 -65 -11 -11 -2 -31 -6 -45
-8 -26 -4 -56 -9 -150 -25 -30 -5 -73 -12 -95 -15 -22 -4 -47 -8 -55 -10 -8
-2 -33 -7 -55 -10 -23 -3 -50 -7 -60 -9 -11 -2 -40 -7 -65 -11 -25 -4 -54 -9
-65 -11 -11 -2 -74 -13 -140 -24 -124 -20 -155 -26 -215 -36 -19 -3 -48 -8
-65 -11 -16 -2 -66 -11 -110 -18 -102 -18 -144 -26 -175 -30 -14 -2 -41 -6
-60 -10 -34 -6 -46 -8 -120 -20 -19 -3 -60 -10 -90 -15 -30 -5 -71 -12 -90
-15 -19 -3 -57 -10 -85 -15 -27 -6 -66 -12 -85 -14 -19 -3 -91 -14 -160 -26
-69 -12 -134 -23 -145 -25 -11 -1 -47 -7 -80 -14 -33 -6 -77 -13 -97 -15 -37
-5 -74 -11 -133 -21 -93 -17 -145 -26 -185 -31 -25 -3 -47 -8 -50 -9 -3 -2
-59 -11 -125 -20 -202 -27 -232 -36 -259 -77 -14 -21 -59 -139 -55 -146 1 -2
-13 -120 -16 -132 -1 -3 -5 -34 -9 -70 -4 -36 -9 -76 -11 -90 -2 -14 -6 -50
-10 -80 -7 -69 -14 -125 -20 -170 -3 -19 -7 -54 -10 -77 -3 -24 -8 -62 -11
-85 -5 -44 -7 -58 -19 -138 -9 -59 -13 -87 -20 -135 -3 -23 -7 -52 -10 -65 -3
-13 -7 -42 -11 -65 -4 -31 -55 -273 -78 -375 -17 -71 -64 -230 -88 -295 -120
-327 -375 -537 -824 -679 -28 -9 -59 -18 -70 -21 -10 -2 -57 -14 -104 -25 -47
-12 -92 -23 -100 -25 -173 -37 -370 -76 -425 -86 -38 -6 -79 -13 -90 -15 -43
-8 -413 -63 -464 -69 -30 -4 -62 -8 -72 -10 -9 -2 -50 -7 -90 -10 -40 -4 -80
-8 -88 -10 -9 -2 -52 -6 -96 -10 -44 -3 -96 -8 -115 -10 -19 -3 -66 -7 -105
-10 -38 -3 -95 -7 -125 -10 -72 -7 -168 -13 -310 -21 -63 -3 -140 -7 -170 -9
-288 -17 -1098 -25 -1185 -12 -250 39 -402 110 -528 247 -122 131 -202 313
-248 560 -36 195 -103 276 -241 295 -51 7 21 7 -1573 6 -1260 -1 -1768 3
-1855 13 -131 16 -215 30 -305 51 -104 24 -247 68 -277 85 -10 6 -22 10 -27
10 -13 0 -179 80 -251 121 -115 65 -253 166 -366 268 -261 235 -682 448 -1134
575 -164 46 -335 83 -510 112 -52 8 -107 17 -122 19 -65 11 -86 14 -138 20
-30 3 -66 8 -80 10 -22 4 -115 15 -250 30 -25 3 -63 7 -85 10 -22 2 -87 9
-145 15 -119 12 -181 19 -225 25 -16 2 -61 7 -100 10 -38 4 -77 8 -85 11 -8 2
-45 6 -81 9 -37 3 -76 7 -87 10 -11 2 -53 7 -93 10 -40 4 -80 8 -88 10 -9 2
-47 6 -86 10 -38 4 -80 8 -93 10 -13 2 -53 7 -90 10 -37 4 -78 8 -92 11 -14 2
-54 7 -90 10 -36 3 -78 8 -95 10 -16 2 -52 6 -80 9 -75 8 -236 25 -270 30 -16
2 -61 7 -100 10 -38 4 -77 9 -86 10 -9 2 -52 6 -95 10 -43 3 -86 8 -94 10 -8
2 -46 7 -85 10 -38 4 -81 8 -95 10 -14 3 -56 7 -93 10 -37 4 -77 8 -87 10 -10
2 -54 7 -97 10 -43 4 -87 9 -97 11 -11 2 -46 6 -80 9 -33 3 -74 8 -91 10 -27
4 -88 10 -180 20 -92 9 -210 23 -265 30 -19 2 -62 7 -95 10 -60 5 -123 12
-180 20 -16 2 -57 7 -90 10 -33 3 -74 8 -92 10 -18 3 -58 7 -90 10 -32 3 -89
9 -128 15 -38 5 -98 12 -132 15 -34 3 -68 7 -75 9 -7 3 -45 7 -84 11 -39 3
-80 7 -91 9 -11 2 -46 7 -79 10 -56 6 -111 12 -180 21 -17 3 -57 7 -90 10 -32
4 -70 8 -84 10 -14 2 -52 7 -85 10 -33 4 -71 8 -85 10 -14 2 -56 7 -95 11 -38
3 -79 8 -90 10 -11 2 -65 7 -120 10 -119 8 -164 -6 -192 -58 -15 -29 -17 -60
-17 -238 0 -191 8 -411 19 -540 15 -175 30 -311 45 -390 5 -30 12 -70 15 -88
69 -412 252 -843 554 -1302 137 -209 314 -446 530 -708 57 -70 129 -158 160
-196 31 -38 61 -74 66 -80 20 -22 133 -172 183 -243 161 -227 273 -448 342
-678 11 -38 25 -83 30 -100 14 -46 91 -346 97 -375 2 -14 8 -41 13 -60 9 -32
45 -206 56 -270 3 -14 7 -36 10 -50 2 -14 7 -41 10 -60 3 -19 9 -60 14 -90 5
-30 12 -75 15 -100 3 -25 8 -56 10 -70 2 -14 6 -50 10 -80 3 -30 8 -71 10 -90
4 -32 8 -69 20 -200 6 -66 15 -182 21 -285 3 -49 7 -115 9 -145 2 -30 6 -120
10 -200 4 -80 8 -161 10 -180 2 -19 6 -105 10 -190 7 -152 6 -156 -17 -190
-39 -57 -56 -62 -208 -55 -74 3 -155 8 -180 10 -89 8 -196 16 -255 20 -33 3
-89 7 -125 10 -36 3 -89 8 -117 10 -75 7 -161 15 -208 20 -22 3 -65 7 -95 9
-59 6 -152 15 -210 20 -19 2 -66 7 -105 11 -38 3 -81 8 -95 11 -14 2 -54 6
-90 9 -36 3 -76 8 -90 10 -14 3 -55 7 -92 10 -36 3 -75 8 -85 10 -11 2 -53 6
-94 10 -41 3 -85 8 -99 10 -14 2 -59 7 -100 10 -91 8 -154 14 -200 19 -19 3
-66 8 -105 11 -38 3 -88 8 -110 10 -22 2 -69 7 -105 10 -36 3 -81 8 -100 10
-19 2 -69 7 -110 10 l-75 6 68 -41 c94 -58 161 -79 492 -155 160 -36 337 -77
395 -91 97 -23 132 -31 170 -39 8 -2 56 -13 105 -25 123 -29 228 -53 370 -85
66 -15 156 -35 200 -46 85 -19 589 -121 690 -138 33 -6 71 -13 85 -16 14 -3
52 -10 85 -15 80 -13 115 -19 145 -25 56 -11 83 -16 280 -50 212 -36 254 -43
305 -49 35 -5 100 -15 135 -22 45 -8 354 -53 400 -59 25 -3 52 -7 60 -10 8 -2
38 -6 65 -10 28 -3 61 -8 75 -10 14 -2 48 -6 75 -10 28 -3 64 -8 80 -11 32 -4
325 -42 385 -49 19 -2 71 -9 115 -14 44 -6 107 -13 140 -16 33 -4 71 -8 85
-10 14 -2 57 -7 95 -10 39 -4 81 -8 95 -10 14 -2 52 -7 85 -10 33 -3 78 -8
100 -10 22 -3 67 -7 100 -10 65 -6 138 -12 225 -20 30 -3 84 -7 120 -10 36 -2
85 -6 110 -9 25 -3 88 -8 140 -11 52 -3 111 -8 130 -10 19 -2 89 -7 155 -11
66 -3 143 -7 170 -9 28 -2 111 -7 185 -10 74 -3 171 -8 215 -10 556 -27 2376
-26 2980 0 81 4 357 15 495 20 41 1 129 6 195 9 66 4 152 9 190 11 39 2 106 6
150 9 44 3 123 8 175 11 52 3 115 7 140 10 41 3 157 11 300 20 30 2 82 6 115
10 33 3 96 7 140 10 44 3 103 7 130 10 81 7 180 15 253 20 37 3 92 7 122 10
101 8 180 15 238 20 31 3 86 7 122 10 88 7 175 15 235 20 92 9 160 14 240 20
44 3 91 7 105 10 14 2 66 6 115 10 50 3 101 8 115 10 23 3 84 8 240 21 30 2
73 6 95 9 22 2 76 7 120 10 44 3 96 8 115 10 19 3 71 7 115 10 44 4 95 8 114
10 30 4 64 7 235 21 77 6 158 13 221 19 72 7 171 15 240 20 33 2 85 7 115 10
30 2 87 7 125 10 201 15 226 17 370 29 76 7 148 13 265 22 75 5 104 8 255 19
44 3 103 7 130 10 28 2 88 6 135 10 128 9 187 13 275 19 44 4 112 8 150 11 39
3 104 7 145 10 86 6 188 13 312 20 47 3 124 7 170 10 45 2 121 7 168 10 47 3
132 7 190 10 58 3 141 8 185 10 1621 87 4135 92 5520 10 39 -2 124 -7 190 -11
66 -4 140 -8 165 -9 25 -2 95 -6 155 -10 61 -4 128 -8 150 -10 22 -3 83 -7
136 -10 53 -2 116 -7 140 -9 24 -3 105 -8 179 -11 74 -3 162 -8 195 -10 33 -3
110 -7 170 -10 356 -17 647 -33 745 -40 30 -3 91 -7 135 -10 141 -9 219 -15
265 -20 25 -2 79 -7 120 -10 41 -4 86 -8 100 -10 14 -2 57 -6 95 -10 132 -11
180 -15 235 -21 74 -8 117 -11 230 -19 52 -4 107 -8 122 -10 111 -13 667 -25
762 -16 34 3 11 12 -165 67 -112 35 -213 66 -224 68 -11 2 -40 9 -65 16 -25 7
-54 14 -65 16 -11 2 -40 8 -65 13 -87 20 -211 37 -325 46 -44 3 -98 8 -120 11
-22 3 -56 7 -75 9 -63 5 -157 25 -267 56 -208 58 -362 95 -618 145 -102 19
-519 86 -620 99 -27 3 -57 8 -65 10 -8 2 -37 7 -65 11 -27 3 -59 8 -70 10 -11
3 -39 7 -61 10 -23 2 -53 7 -65 9 -13 3 -44 8 -69 11 -25 3 -54 8 -65 10 -11
2 -36 6 -56 9 -20 3 -110 16 -200 30 -181 28 -397 60 -474 71 -27 3 -59 8 -70
10 -11 2 -40 7 -65 10 -25 3 -56 7 -70 9 -14 2 -43 6 -65 9 -22 3 -87 12 -145
20 -58 8 -130 17 -161 21 -31 3 -65 7 -75 9 -11 2 -48 7 -84 11 -36 4 -76 9
-90 10 -14 2 -52 6 -85 10 -71 7 -127 14 -175 20 -19 3 -61 7 -94 10 -104 9
-150 46 -131 106 4 13 58 98 119 189 139 205 185 280 278 450 218 397 434 895
611 1405 79 226 200 606 233 730 7 28 36 131 64 230 43 154 189 709 205 777 2
13 11 48 19 78 24 87 46 173 51 195 3 11 9 31 14 45 10 29 54 170 57 185 4 20
63 186 99 277 36 92 166 365 192 403 7 11 54 83 104 160 81 123 238 338 304
414 12 14 51 59 85 99 203 238 540 549 815 751 33 25 76 56 95 71 100 76 421
280 585 372 213 120 534 282 700 353 61 25 124 52 140 59 39 17 259 97 500
181 340 119 568 216 750 318 33 18 81 45 106 59 266 149 430 284 547 450 78
111 91 189 43 247 -25 31 -33 34 -88 37 -34 2 -63 1 -65 -1z"/>
</g>
</svg>
